<svg width="42" height="42" xmlns="http://www.w3.org/2000/svg" xmlns:xlink="http://www.w3.org/1999/xlink" xml:space="preserve" overflow="hidden"><defs><clipPath id="clip0"><rect x="224" y="135" width="42" height="42"/></clipPath></defs><g clip-path="url(#clip0)" transform="translate(-224 -135)"><path d="M264.588 142.11C264.286 141.587 263.617 141.408 263.094 141.71L258.902 144.129C257.261 142.371 254.506 142.276 252.747 143.917 252.731 143.932 252.715 143.948 252.699 143.963L249.139 141.907C249.582 139.532 248.015 137.247 245.64 136.804 243.265 136.361 240.98 137.927 240.537 140.303 240.438 140.833 240.438 141.377 240.537 141.907L236.974 143.963C235.232 142.291 232.464 142.349 230.793 144.09 229.121 145.833 229.178 148.6 230.92 150.271 231.437 150.767 232.068 151.129 232.757 151.324L232.757 155.422C230.436 156.077 229.086 158.488 229.74 160.809 229.748 160.836 229.756 160.864 229.764 160.891L225.422 163.402C224.897 163.7 224.713 164.368 225.012 164.893 225.31 165.418 225.978 165.602 226.503 165.303 226.507 165.301 226.511 165.298 226.516 165.296L230.904 162.762C232.589 164.409 235.277 164.419 236.974 162.785L240.537 164.841C240.114 167.097 241.519 169.293 243.744 169.855L243.744 174.812C243.744 175.417 244.234 175.906 244.838 175.906 245.442 175.906 245.931 175.417 245.931 174.812L245.931 169.856C248.156 169.293 249.56 167.098 249.139 164.842L252.699 162.786C254.443 164.456 257.21 164.396 258.879 162.652 260.549 160.909 260.489 158.142 258.746 156.472 258.231 155.98 257.604 155.62 256.919 155.425L256.919 151.324C259.199 150.685 260.548 148.339 259.955 146.047L264.187 143.604C264.711 143.302 264.89 142.633 264.588 142.11ZM244.838 139.375C245.804 139.375 246.588 140.159 246.588 141.125 246.588 142.091 245.804 142.875 244.838 142.875 243.871 142.875 243.088 142.091 243.088 141.125 243.088 140.159 243.871 139.375 244.838 139.375ZM232.201 147.119C232.201 146.152 232.984 145.369 233.951 145.369 234.917 145.369 235.701 146.152 235.701 147.119 235.701 148.085 234.917 148.869 233.951 148.869 232.985 148.869 232.202 148.087 232.201 147.121ZM233.951 161.377C232.984 161.377 232.201 160.593 232.201 159.627 232.201 158.66 232.984 157.877 233.951 157.877 234.917 157.877 235.701 158.66 235.701 159.627 235.703 160.593 234.922 161.379 233.955 161.381 233.954 161.381 233.952 161.381 233.951 161.381ZM244.838 167.375C243.871 167.375 243.088 166.591 243.088 165.625 243.088 164.659 243.871 163.875 244.838 163.875 245.804 163.875 246.588 164.659 246.588 165.625 246.588 166.591 245.804 167.375 244.838 167.375ZM244.838 161.25C243.529 161.25 242.289 161.837 241.459 162.849L238.131 160.927C238.848 158.621 237.559 156.17 235.253 155.454 235.152 155.422 235.049 155.395 234.946 155.37L234.946 151.376C237.298 150.829 238.761 148.479 238.215 146.127 238.191 146.024 238.163 145.921 238.131 145.82L241.461 143.897C242.991 145.763 245.744 146.036 247.61 144.506 247.832 144.324 248.036 144.12 248.218 143.897L251.543 145.817C250.826 148.123 252.114 150.573 254.419 151.29 254.523 151.323 254.628 151.351 254.734 151.376L254.734 155.367C252.381 155.911 250.915 158.258 251.458 160.611 251.483 160.717 251.511 160.822 251.543 160.926L248.218 162.846C247.387 161.834 246.147 161.249 244.838 161.25ZM257.469 159.631C257.469 160.598 256.685 161.381 255.719 161.381 254.752 161.381 253.969 160.598 253.969 159.631 253.969 158.665 254.752 157.881 255.719 157.881 256.685 157.881 257.469 158.665 257.469 159.631ZM255.719 148.873C254.752 148.873 253.969 148.09 253.969 147.123 253.969 146.157 254.752 145.373 255.719 145.373 256.685 145.373 257.469 146.157 257.469 147.123 257.468 148.089 256.684 148.871 255.719 148.871Z"/></g></svg>